# xmcd CD database file
#
# Track frame offsets:
#	150
#	32250
#	58650
#	92625
#	132900
#	147075
#	174675
#	202725
#	242475
#	263850
#	291750
#
# Disc length: 4108 seconds
#
# Revision: 0
# Processed by: cddbd v1.5.2PL0 Copyright (c) Steve Scherf et al.
# Submitted via: CDex 1.70beta2
#
DISCID=93100a0b
DTITLE=Robin Verheyen NY Quartet - Trinity
DYEAR=2012
DGENRE=Jazz
TTITLE0=RR
TTITLE1=Twelve
TTITLE2=Incognito
TTITLE3=Trinity
TTITLE4=Morning drops
TTITLE5=Roscopaje
TTITLE6=Africa
TTITLE7=Free time
TTITLE8=Mixed modes
TTITLE9=Together
TTITLE10=Slowly erupting
EXTD=YEAR: 2012
EXTT0=
EXTT1=
EXTT2=
EXTT3=
EXTT4=
EXTT5=
EXTT6=
EXTT7=
EXTT8=
EXTT9=
EXTT10=
PLAYORDER=
